<svg width="48" height="48" viewBox="0 0 48 48" fill="none" xmlns="http://www.w3.org/2000/svg">
<path d="M38.3 16C37.951 15.3954 37.4498 14.8928 36.8463 14.5419C36.2429 14.191 35.5581 14.0042 34.86 14H30V10C30 9.46957 29.7893 8.96086 29.4142 8.58579C29.0391 8.21071 28.5304 8 28 8H8C6.93913 8 5.92172 8.42143 5.17157 9.17157C4.42143 9.92172 4 10.9391 4 12V32C4.00072 32.7015 4.18589 33.3904 4.53692 33.9977C4.88796 34.605 5.39253 35.1093 6 35.46C5.92839 37.3165 6.59721 39.1254 7.85933 40.4888C9.12145 41.8522 10.8735 42.6584 12.73 42.73C14.5865 42.8016 16.3954 42.1328 17.7588 40.8707C19.1222 39.6085 19.9284 37.8565 20 36H26.2C26.4212 37.6734 27.2429 39.2094 28.5123 40.322C29.7816 41.4347 31.412 42.0481 33.1 42.0481C34.788 42.0481 36.4184 41.4347 37.6877 40.322C38.9571 39.2094 39.7788 37.6734 40 36C41.0609 36 42.0783 35.5786 42.8284 34.8284C43.5786 34.0783 44 33.0609 44 32V26C43.9969 25.6351 43.9005 25.2771 43.72 24.96L38.3 16ZM30 18H34.86L38.46 24H30V18ZM13 38C12.4067 38 11.8266 37.8241 11.3333 37.4944C10.8399 37.1648 10.4554 36.6962 10.2284 36.148C10.0013 35.5999 9.94189 34.9967 10.0576 34.4147C10.1734 33.8328 10.4591 33.2982 10.8787 32.8787C11.2982 32.4591 11.8328 32.1734 12.4147 32.0576C12.9967 31.9419 13.5999 32.0013 14.1481 32.2284C14.6962 32.4554 15.1648 32.8399 15.4944 33.3333C15.8241 33.8266 16 34.4067 16 35C16 35.7956 15.6839 36.5587 15.1213 37.1213C14.5587 37.6839 13.7956 38 13 38ZM33 38C32.4067 38 31.8266 37.8241 31.3333 37.4944C30.8399 37.1648 30.4554 36.6962 30.2284 36.148C30.0013 35.5999 29.9419 34.9967 30.0576 34.4147C30.1734 33.8328 30.4591 33.2982 30.8787 32.8787C31.2982 32.4591 31.8328 32.1734 32.4147 32.0576C32.9967 31.9419 33.5999 32.0013 34.148 32.2284C34.6962 32.4554 35.1648 32.8399 35.4944 33.3333C35.8241 33.8266 36 34.4067 36 35C36 35.7956 35.6839 36.5587 35.1213 37.1213C34.5587 37.6839 33.7956 38 33 38Z" fill="#43486A"/>
</svg>
