<svg width="48" height="48" viewBox="0 0 48 48" fill="none" xmlns="http://www.w3.org/2000/svg">
<path d="M21 42C22.6569 42 24 40.6569 24 39C24 37.3431 22.6569 36 21 36C19.3431 36 18 37.3431 18 39C18 40.6569 19.3431 42 21 42Z" fill="#43486A"/>
<path d="M35 42C36.6569 42 38 40.6569 38 39C38 37.3431 36.6569 36 35 36C33.3431 36 32 37.3431 32 39C32 40.6569 33.3431 42 35 42Z" fill="#43486A"/>
<path d="M42 14H14.668L12.36 8.46C12.057 7.73028 11.5442 7.10694 10.8866 6.669C10.229 6.23105 9.45611 5.99821 8.666 5.99999H4V9.99999H8.668L18.154 32.77C18.464 33.514 19.194 34 20 34H36C36.834 34 37.58 33.482 37.874 32.704L43.874 16.704C43.9864 16.4012 44.024 16.0757 43.9836 15.7552C43.9432 15.4348 43.8261 15.1288 43.6421 14.8633C43.4581 14.5979 43.2127 14.3807 42.9269 14.2304C42.641 14.0801 42.323 14.0011 42 14V14ZM34 26H30V30H26V26H22V22H26V18H30V22H34V26Z" fill="#43486A"/>
</svg>
