<svg width="48" height="48" viewBox="0 0 48 48" fill="none" xmlns="http://www.w3.org/2000/svg">
<path d="M36 14.4V19.2C38.64 19.2 40.8 21.36 40.8 24V40.8C40.8 43.44 38.64 45.6 36 45.6H12C9.36001 45.6 7.20001 43.44 7.20001 40.8V24C7.20001 21.36 9.36001 19.2 12 19.2V14.4C12 7.77599 17.376 2.39999 24 2.39999C30.624 2.39999 36 7.77599 36 14.4ZM19.2 14.4V19.2H28.8V14.4C28.8 11.76 26.64 9.59999 24 9.59999C21.36 9.59999 19.2 11.76 19.2 14.4ZM25.92 39V33.792C27.6 33.048 28.8 31.368 28.8 29.4C28.8 26.76 26.64 24.6 24 24.6C21.36 24.6 19.2 26.76 19.2 29.4C19.2 31.368 20.4 33.048 22.08 33.792V39H25.92V39Z" fill="#43486A"/>
</svg>
