<svg width="60" height="48" viewBox="0 0 60 48" fill="none" xmlns="http://www.w3.org/2000/svg">
<path d="M57 3H3C1.34344 3 0 4.34344 0 6V42C0 43.6566 1.34344 45 3 45H57C58.6566 45 60 43.6566 60 42V6C60 4.34344 58.6566 3 57 3ZM16.5 30.7388V32.25C16.5 32.6644 16.1644 33 15.75 33H14.25C13.8356 33 13.5 32.6644 13.5 32.25V30.7228C12.4416 30.6684 11.4122 30.2991 10.5591 29.6587C10.1934 29.3841 10.1747 28.8366 10.5056 28.5206L11.6072 27.4697C11.8669 27.2222 12.2531 27.2109 12.5569 27.4012C12.9197 27.6281 13.3312 27.75 13.7587 27.75H16.3941C17.0034 27.75 17.5003 27.195 17.5003 26.5134C17.5003 25.9556 17.1619 25.4644 16.6781 25.32L12.4594 24.0544C10.7166 23.5312 9.49875 21.8588 9.49875 19.9866C9.49875 17.6878 11.2847 15.8203 13.4991 15.7612V14.25C13.4991 13.8356 13.8347 13.5 14.2491 13.5H15.7491C16.1634 13.5 16.4991 13.8356 16.4991 14.25V15.7772C17.5575 15.8316 18.5869 16.2 19.44 16.8412C19.8056 17.1159 19.8244 17.6634 19.4934 17.9794L18.3919 19.0303C18.1322 19.2778 17.7459 19.2891 17.4422 19.0988C17.0794 18.8709 16.6678 18.75 16.2403 18.75H13.605C12.9956 18.75 12.4988 19.305 12.4988 19.9866C12.4988 20.5444 12.8372 21.0356 13.3209 21.18L17.5397 22.4456C19.2825 22.9687 20.5003 24.6412 20.5003 26.5134C20.5003 28.8131 18.7144 30.6797 16.5 30.7388V30.7388ZM39 29.25C39 29.6644 38.6644 30 38.25 30H27.75C27.3356 30 27 29.6644 27 29.25V27.75C27 27.3356 27.3356 27 27.75 27H38.25C38.6644 27 39 27.3356 39 27.75V29.25ZM54 29.25C54 29.6644 53.6644 30 53.25 30H45.75C45.3356 30 45 29.6644 45 29.25V27.75C45 27.3356 45.3356 27 45.75 27H53.25C53.6644 27 54 27.3356 54 27.75V29.25ZM54 20.25C54 20.6644 53.6644 21 53.25 21H27.75C27.3356 21 27 20.6644 27 20.25V18.75C27 18.3356 27.3356 18 27.75 18H53.25C53.6644 18 54 18.3356 54 18.75V20.25Z" fill="#43486A"/>
</svg>
